{"title":"The World's End 2013 READNFO WEBRiP XViD UNiQUE","uid":8886555,"size":1506025811,"categoryP":"video","categoryS":"movies","magnet":"?xt=urn:btih:35ec491984dd3cccfe86be82708fdd66cb98ea76&amp;dn=The+World%27s+End+2013+READNFO+WEBRiP+XViD+UNiQUE&amp;tr=udp%3A%2F%2Ftracker.openbittorrent.com%3A80&amp;tr=udp%3A%2F%2Fopen.demonii.com%3A1337&amp;tr=udp%3A%2F%2Ftracker.coppersurfer.tk%3A6969&amp;tr=udp%3A%2F%2Fexodus.desync.com%3A6969","seeders":59,"leechers":11,"uploader":"xxxlavalxxx","files":-1,"time":1378476826,"description":" &lt;a href=&quot;\nhttp://www.imdb.com/title/tt1213663/&quot; rel=&quot;nofollow&quot; target=&quot;_NEW&quot;&gt;\nhttp://www.imdb.com/title/tt1213663/&lt;/a&gt;\n\n\n\n20 years after attempting an epic pub crawl, five childhood friends reunite when one of them becomes hell bent on trying the drinking marathon again. They are convinced to stage an encore by mate Gary King, a 40-year old man trapped at the cigarette end of his teens, who drags his reluctant pals to their home town and once again attempts to reach the fabled pub, The World's End. As they attempt to reconcile the past and present, they realize the real struggle is for the future, not just theirs but humankind's. Reaching The World's End is the least of their worries.\n\n\n\nDirector:\n Edgar Wright \n\nWriters:\n Simon Pegg, Edgar Wright \n\nStars:\n Simon Pegg, Nick Frost, Martin Freeman\n\nGenres:\n  Action |  Comedy |  Sci-Fi \n\nCountry:\n UK \n\nLanguage:\n English \n\n\n\nFormat                                   : AVI\n Format/Info                              : Audio Video Interleave\n File size                                : 1.39 GiB\n Duration                                 : 1h 44mn\n Overall bit rate                         : 1 909 Kbps\n Writing application                      : VirtualDubMod 1.5.10.2 (build 2540/release)\n Writing library                          : VirtualDubMod build 2540/release\n\n Video\n ID                                       : 0\n Format                                   : MPEG-4 Visual\n Format profile                           : Advanced Simple@L5\n Format settings, BVOP                    : 2\n Format settings, QPel                    : No\n Format settings, GMC                     : No warppoints\n Format settings, Matrix                  : Default (H.263)\n Muxing mode                              : Packed bitstream\n Codec ID                                 : XVID\n Codec ID/Hint                            : XviD\n Duration                                 : 1h 44mn\n Bit rate                                 : 1 707 Kbps\n Width                                    : 720 pixels\n Height                                   : 304 pixels\n Display aspect ratio                     : 2.35:1\n Frame rate                               : 25.000 fps\n Color space                              : YUV\n Chroma subsampling                       : 4:2:0\n Bit depth                                : 8 bits\n Scan type                                : Progressive\n Compression mode                         : Lossy\n Bits/(Pixel*Frame)                       : 0.312\n Stream size                              : 1.25 GiB (89%)\n Writing library                          : XviD 64\n\n Audio\n ID                                       : 1\n Format                                   : AC-3\n Format/Info                              : Audio Coding 3\n Mode extension                           : CM (complete main)\n Format settings, Endianness              : Big\n Codec ID                                 : 2000\n Duration                                 : 1h 44mn\n Bit rate mode                            : Constant\n Bit rate                                 : 192 Kbps\n Channel(s)                               : 2 channels\n Channel positions                        : Front: L R\n Sampling rate                            : 44.1 KHz\n Bit depth                                : 16 bits\n Compression mode                         : Lossy\n Stream size                              : 144 MiB (10%)\n Alignment                                : Split accross interleaves\n Interleave, duration                     : 40 ms (1.00 video frame)\n Interleave, preload duration             : 500 ms\n\n\nSource Used   SmY - Thanks\n\n\n &lt;a href=&quot;\nhttp://bayimg.com/japgfaAeg&quot; rel=&quot;nofollow&quot; target=&quot;_NEW&quot;&gt;\nhttp://bayimg.com/japgfaAeg&lt;/a&gt; &lt;a href=&quot;\nhttp://bayimg.com/JAPgHAaEg&quot; rel=&quot;nofollow&quot; target=&quot;_NEW&quot;&gt;\nhttp://bayimg.com/JAPgHAaEg&lt;/a&gt;\n","torrent":{"xt":"urn:btih:35ec491984dd3cccfe86be82708fdd66cb98ea76","amp;dn":"The+World%27s+End+2013+READNFO+WEBRiP+XViD+UNiQUE","amp;tr":["udp%3A%2F%2Ftracker.openbittorrent.com%3A80","udp%3A%2F%2Fopen.demonii.com%3A1337","udp%3A%2F%2Ftracker.coppersurfer.tk%3A6969","udp%3A%2F%2Fexodus.desync.com%3A6969"],"infoHash":"35ec491984dd3cccfe86be82708fdd66cb98ea76","infoHashBuffer":{"type":"Buffer","data":[53,236,73,25,132,221,60,204,254,134,190,130,112,143,221,102,203,152,234,118]},"announce":[],"urlList":[]}}